G04*
G04 #@! TF.GenerationSoftware,Altium Limited,Altium Designer,22.0.2 (36)*
G04*
G04 Layer_Color=255*
%FSLAX24Y24*%
%MOIN*%
G70*
G04*
G04 #@! TF.SameCoordinates,46051EB8-178F-4A71-8072-0C991FAB0142*
G04*
G04*
G04 #@! TF.FilePolarity,Positive*
G04*
G01*
G75*
%ADD15R,0.0256X0.0236*%
%ADD16O,0.0687X0.0220*%
%ADD17R,0.0236X0.0256*%
%ADD18R,0.0453X0.0236*%
%ADD19R,0.0453X0.0118*%
%ADD20R,0.0526X0.0591*%
%ADD37C,0.0800*%
%ADD38C,0.0600*%
%ADD39C,0.0551*%
%ADD40R,0.0551X0.0551*%
%ADD41C,0.0256*%
%ADD42O,0.0709X0.0394*%
%ADD43O,0.0827X0.0394*%
D15*
X5650Y4165D02*
D03*
Y4500D02*
D03*
X3150Y5350D02*
D03*
Y5685D02*
D03*
X3200Y6600D02*
D03*
Y6935D02*
D03*
X5700Y5567D02*
D03*
Y5233D02*
D03*
X5700Y6733D02*
D03*
Y7067D02*
D03*
D16*
X8712Y4700D02*
D03*
Y5200D02*
D03*
Y5700D02*
D03*
Y6200D02*
D03*
Y6700D02*
D03*
Y7200D02*
D03*
Y7700D02*
D03*
Y8200D02*
D03*
X6450Y4700D02*
D03*
Y5200D02*
D03*
Y5700D02*
D03*
Y6200D02*
D03*
Y6700D02*
D03*
Y7200D02*
D03*
Y7700D02*
D03*
Y8200D02*
D03*
X8762Y350D02*
D03*
Y850D02*
D03*
Y1350D02*
D03*
Y1850D02*
D03*
Y2350D02*
D03*
Y2850D02*
D03*
Y3350D02*
D03*
Y3850D02*
D03*
X6500Y350D02*
D03*
Y850D02*
D03*
Y1350D02*
D03*
Y1850D02*
D03*
Y2350D02*
D03*
Y2850D02*
D03*
Y3350D02*
D03*
Y3850D02*
D03*
D17*
X5385Y2150D02*
D03*
X5050D02*
D03*
X3533Y4300D02*
D03*
X3867D02*
D03*
X3533Y3350D02*
D03*
X3867D02*
D03*
X3165Y2150D02*
D03*
X3500D02*
D03*
X4133Y2150D02*
D03*
X4467D02*
D03*
D18*
X2480Y5210D02*
D03*
Y4895D02*
D03*
Y2690D02*
D03*
Y3005D02*
D03*
D19*
Y3261D02*
D03*
Y3458D02*
D03*
Y3655D02*
D03*
Y3852D02*
D03*
Y4048D02*
D03*
Y4245D02*
D03*
Y4442D02*
D03*
Y4639D02*
D03*
D20*
X2150Y6850D02*
D03*
X1250D02*
D03*
D37*
X4450Y7700D02*
D03*
Y5700D02*
D03*
X2650Y950D02*
D03*
X4650D02*
D03*
D38*
X9900Y8200D02*
D03*
X9850Y5600D02*
D03*
X7350Y4850D02*
D03*
Y5600D02*
D03*
Y950D02*
D03*
X7800Y1500D02*
D03*
X1550Y3550D02*
D03*
Y4350D02*
D03*
D39*
X10550Y1025D02*
D03*
Y1812D02*
D03*
Y2600D02*
D03*
Y5400D02*
D03*
Y6187D02*
D03*
Y6975D02*
D03*
D40*
Y3387D02*
D03*
Y7762D02*
D03*
D41*
X2057Y2812D02*
D03*
Y5088D02*
D03*
D42*
X620Y2249D02*
D03*
X620Y5651D02*
D03*
D43*
X2254Y2249D02*
D03*
X2254Y5651D02*
D03*
M02*
