G04*
G04 #@! TF.GenerationSoftware,Altium Limited,Altium Designer,22.0.2 (36)*
G04*
G04 Layer_Physical_Order=1*
G04 Layer_Color=255*
%FSLAX24Y24*%
%MOIN*%
G70*
G04*
G04 #@! TF.SameCoordinates,46051EB8-178F-4A71-8072-0C991FAB0142*
G04*
G04*
G04 #@! TF.FilePolarity,Positive*
G04*
G01*
G75*
%ADD10C,0.0060*%
%ADD14C,0.0100*%
%ADD15R,0.0256X0.0236*%
%ADD16O,0.0687X0.0220*%
%ADD17R,0.0236X0.0256*%
%ADD18R,0.0453X0.0236*%
%ADD19R,0.0453X0.0118*%
%ADD20R,0.0526X0.0591*%
%ADD34C,0.0300*%
%ADD35C,0.0200*%
%ADD36C,0.0040*%
%ADD37C,0.0800*%
%ADD38C,0.0600*%
%ADD39C,0.0551*%
%ADD40R,0.0551X0.0551*%
%ADD41C,0.0256*%
%ADD42O,0.0709X0.0394*%
%ADD43O,0.0827X0.0394*%
G36*
X9686Y7990D02*
X9673Y8001D01*
X9658Y8012D01*
X9641Y8021D01*
X9621Y8028D01*
X9600Y8035D01*
X9576Y8040D01*
X9551Y8045D01*
X9523Y8048D01*
X9460Y8050D01*
Y8350D01*
X9492Y8351D01*
X9551Y8355D01*
X9576Y8360D01*
X9600Y8365D01*
X9621Y8372D01*
X9641Y8379D01*
X9658Y8388D01*
X9673Y8399D01*
X9686Y8410D01*
Y7990D01*
D02*
G37*
G36*
X11346Y8788D02*
X11298Y8725D01*
X11263Y8640D01*
X11251Y8550D01*
X11263Y8460D01*
X11298Y8375D01*
X11353Y8303D01*
X11425Y8248D01*
X11510Y8213D01*
X11600Y8201D01*
X11690Y8213D01*
X11775Y8248D01*
X11838Y8296D01*
X11888Y8282D01*
Y668D01*
X11838Y654D01*
X11775Y702D01*
X11690Y737D01*
X11600Y749D01*
X11510Y737D01*
X11425Y702D01*
X11353Y647D01*
X11298Y575D01*
X11263Y490D01*
X11251Y400D01*
X11263Y310D01*
X11298Y225D01*
X11349Y159D01*
X11337Y109D01*
X663D01*
X651Y159D01*
X702Y225D01*
X737Y310D01*
X749Y400D01*
X737Y490D01*
X702Y575D01*
X647Y647D01*
X575Y702D01*
X490Y737D01*
X400Y749D01*
X310Y737D01*
X225Y702D01*
X162Y654D01*
X112Y668D01*
Y8282D01*
X162Y8296D01*
X225Y8248D01*
X310Y8213D01*
X400Y8201D01*
X490Y8213D01*
X575Y8248D01*
X647Y8303D01*
X702Y8375D01*
X737Y8460D01*
X749Y8550D01*
X737Y8640D01*
X702Y8725D01*
X654Y8788D01*
X668Y8838D01*
X4138D01*
X4153Y8788D01*
X4099Y8751D01*
X3098Y7751D01*
X3049Y7701D01*
X3002Y7632D01*
X2986Y7550D01*
Y7194D01*
X2473D01*
Y7205D01*
X1827D01*
Y6495D01*
X2064D01*
X2065Y6490D01*
X2111Y6420D01*
X2962Y5570D01*
Y5507D01*
X3039D01*
X3068Y5487D01*
X3150Y5471D01*
X3232Y5487D01*
X3261Y5507D01*
X3338D01*
Y5588D01*
X3348Y5603D01*
X3364Y5685D01*
X3348Y5767D01*
X3338Y5781D01*
Y5863D01*
X3275D01*
X2477Y6661D01*
Y6737D01*
X2522Y6766D01*
X3012D01*
Y6757D01*
X3089D01*
X3118Y6737D01*
X3200Y6721D01*
X3282Y6737D01*
X3311Y6757D01*
X3388D01*
Y6838D01*
X3398Y6853D01*
X3414Y6935D01*
Y7461D01*
X4339Y8386D01*
X7861D01*
X8199Y8049D01*
X8209Y8042D01*
X8194Y7992D01*
X7993D01*
X7958Y7985D01*
X7928Y7965D01*
X7755Y7792D01*
X6857D01*
X6850Y7795D01*
X6837Y7795D01*
X6828Y7796D01*
X6824Y7796D01*
X6823Y7798D01*
X6820Y7805D01*
X6817Y7806D01*
X6806Y7823D01*
X6750Y7860D01*
X6683Y7873D01*
X6216D01*
X6150Y7860D01*
X6094Y7823D01*
X6056Y7766D01*
X6043Y7700D01*
X6056Y7634D01*
X6094Y7577D01*
X6150Y7540D01*
X6216Y7527D01*
X6683D01*
X6750Y7540D01*
X6806Y7577D01*
X6817Y7594D01*
X6820Y7595D01*
X6823Y7602D01*
X6823Y7603D01*
X6838Y7605D01*
X6850Y7605D01*
X6857Y7608D01*
X7793D01*
X7828Y7615D01*
X7858Y7635D01*
X8031Y7808D01*
X8292D01*
X8317Y7758D01*
X8305Y7700D01*
X8318Y7634D01*
X8356Y7577D01*
X8412Y7540D01*
X8479Y7527D01*
X8946D01*
X9012Y7540D01*
X9068Y7577D01*
X9106Y7634D01*
X9119Y7700D01*
X9107Y7758D01*
X9132Y7808D01*
X9587D01*
X10166Y7229D01*
X10168Y7223D01*
X10176Y7214D01*
X10181Y7205D01*
X10187Y7191D01*
X10193Y7173D01*
X10198Y7151D01*
X10202Y7125D01*
X10209Y7019D01*
X10210Y6978D01*
X10212Y6972D01*
X10223Y6887D01*
X10257Y6806D01*
X10311Y6736D01*
X10381Y6682D01*
X10462Y6648D01*
X10550Y6637D01*
X10638Y6648D01*
X10719Y6682D01*
X10789Y6736D01*
X10843Y6806D01*
X10877Y6887D01*
X10888Y6975D01*
X10877Y7063D01*
X10843Y7144D01*
X10789Y7214D01*
X10719Y7268D01*
X10638Y7302D01*
X10553Y7313D01*
X10547Y7315D01*
X10505Y7316D01*
X10467Y7317D01*
X10400Y7323D01*
X10374Y7327D01*
X10352Y7332D01*
X10334Y7338D01*
X10320Y7344D01*
X10311Y7349D01*
X10302Y7357D01*
X10295Y7376D01*
X10326Y7426D01*
X10885D01*
Y8098D01*
X10299D01*
X10256Y8148D01*
X10263Y8200D01*
X10251Y8294D01*
X10214Y8382D01*
X10157Y8457D01*
X10082Y8514D01*
X9994Y8551D01*
X9900Y8563D01*
X9806Y8551D01*
X9718Y8514D01*
X9648Y8460D01*
X9643Y8459D01*
X9633Y8450D01*
X9624Y8444D01*
X9613Y8438D01*
X9600Y8433D01*
X9583Y8428D01*
X9564Y8423D01*
X9543Y8420D01*
X9489Y8415D01*
X9459Y8415D01*
X9457Y8414D01*
X8439D01*
X8101Y8751D01*
X8047Y8788D01*
X8062Y8838D01*
X11332D01*
X11346Y8788D01*
D02*
G37*
G36*
X6774Y7754D02*
X6777Y7749D01*
X6780Y7744D01*
X6786Y7741D01*
X6792Y7737D01*
X6801Y7735D01*
X6810Y7733D01*
X6822Y7731D01*
X6835Y7730D01*
X6849Y7730D01*
Y7670D01*
X6835Y7670D01*
X6810Y7667D01*
X6801Y7665D01*
X6792Y7663D01*
X6786Y7659D01*
X6780Y7656D01*
X6777Y7651D01*
X6774Y7646D01*
X6774Y7641D01*
Y7759D01*
X6774Y7754D01*
D02*
G37*
G36*
X10274Y7296D02*
X10291Y7286D01*
X10311Y7277D01*
X10335Y7270D01*
X10362Y7263D01*
X10392Y7258D01*
X10463Y7252D01*
X10503Y7251D01*
X10547Y7250D01*
X10275Y6978D01*
X10274Y7022D01*
X10267Y7133D01*
X10262Y7163D01*
X10255Y7190D01*
X10248Y7214D01*
X10239Y7234D01*
X10229Y7251D01*
X10218Y7264D01*
X10261Y7307D01*
X10274Y7296D01*
D02*
G37*
G36*
X11251Y-7419D02*
X11254Y-7436D01*
X11259Y-7451D01*
X11266Y-7464D01*
X11275Y-7475D01*
X11286Y-7484D01*
X11299Y-7491D01*
X11314Y-7496D01*
X11331Y-7499D01*
X11350Y-7500D01*
Y-7600D01*
X11331Y-7601D01*
X11314Y-7604D01*
X11299Y-7609D01*
X11286Y-7616D01*
X11275Y-7625D01*
X11266Y-7636D01*
X11259Y-7649D01*
X11254Y-7664D01*
X11251Y-7681D01*
X11250Y-7700D01*
X11150D01*
X11149Y-7681D01*
X11146Y-7664D01*
X11141Y-7649D01*
X11134Y-7636D01*
X11125Y-7625D01*
X11114Y-7616D01*
X11101Y-7609D01*
X11086Y-7604D01*
X11069Y-7601D01*
X11050Y-7600D01*
Y-7500D01*
X11069Y-7499D01*
X11086Y-7496D01*
X11101Y-7491D01*
X11114Y-7484D01*
X11125Y-7475D01*
X11134Y-7464D01*
X11141Y-7451D01*
X11146Y-7436D01*
X11149Y-7419D01*
X11150Y-7400D01*
X11250D01*
X11251Y-7419D01*
D02*
G37*
%LPC*%
G36*
X4450Y8164D02*
X4330Y8148D01*
X4218Y8102D01*
X4122Y8028D01*
X4048Y7932D01*
X4002Y7820D01*
X3986Y7700D01*
X4002Y7580D01*
X4048Y7468D01*
X4122Y7372D01*
X4218Y7298D01*
X4330Y7252D01*
X4450Y7236D01*
X4570Y7252D01*
X4682Y7298D01*
X4778Y7372D01*
X4852Y7468D01*
X4898Y7580D01*
X4914Y7700D01*
X4898Y7820D01*
X4852Y7932D01*
X4778Y8028D01*
X4682Y8102D01*
X4570Y8148D01*
X4450Y8164D01*
D02*
G37*
G36*
X8946Y7373D02*
X8479D01*
X8412Y7360D01*
X8356Y7323D01*
X8318Y7266D01*
X8305Y7200D01*
X8318Y7134D01*
X8356Y7077D01*
X8412Y7040D01*
X8479Y7027D01*
X8946D01*
X9012Y7040D01*
X9068Y7077D01*
X9106Y7134D01*
X9119Y7200D01*
X9106Y7266D01*
X9068Y7323D01*
X9012Y7360D01*
X8946Y7373D01*
D02*
G37*
G36*
X6683D02*
X6216D01*
X6150Y7360D01*
X6094Y7323D01*
X6056Y7266D01*
X6043Y7200D01*
X6056Y7134D01*
X6094Y7077D01*
X6150Y7040D01*
X6216Y7027D01*
X6683D01*
X6750Y7040D01*
X6806Y7077D01*
X6817Y7094D01*
X6820Y7095D01*
X6823Y7102D01*
X6823Y7103D01*
X6838Y7105D01*
X6850Y7105D01*
X6857Y7108D01*
X7658D01*
X8331Y6435D01*
X8361Y6415D01*
X8396Y6408D01*
X8410Y6362D01*
X8409Y6358D01*
X8356Y6323D01*
X8318Y6266D01*
X8305Y6200D01*
X8318Y6134D01*
X8356Y6077D01*
X8412Y6040D01*
X8479Y6027D01*
X8946D01*
X9012Y6040D01*
X9068Y6077D01*
X9106Y6134D01*
X9119Y6200D01*
X9106Y6266D01*
X9068Y6323D01*
X9015Y6358D01*
X9014Y6362D01*
X9038Y6408D01*
X10185D01*
X10187Y6403D01*
X10193Y6385D01*
X10198Y6363D01*
X10202Y6337D01*
X10209Y6231D01*
X10210Y6190D01*
X10212Y6184D01*
X10223Y6099D01*
X10257Y6018D01*
X10311Y5948D01*
X10381Y5894D01*
X10462Y5860D01*
X10550Y5849D01*
X10638Y5860D01*
X10719Y5894D01*
X10789Y5948D01*
X10843Y6018D01*
X10877Y6099D01*
X10888Y6187D01*
X10877Y6275D01*
X10843Y6356D01*
X10789Y6426D01*
X10719Y6480D01*
X10638Y6514D01*
X10553Y6525D01*
X10547Y6527D01*
X10505Y6528D01*
X10467Y6529D01*
X10400Y6535D01*
X10374Y6539D01*
X10352Y6544D01*
X10334Y6550D01*
X10320Y6556D01*
X10311Y6561D01*
X10302Y6569D01*
X10291Y6572D01*
X10272Y6585D01*
X10237Y6592D01*
X9132D01*
X9107Y6642D01*
X9119Y6700D01*
X9106Y6766D01*
X9068Y6823D01*
X9012Y6860D01*
X8946Y6873D01*
X8479D01*
X8412Y6860D01*
X8356Y6823D01*
X8323Y6773D01*
X8270Y6755D01*
X7761Y7265D01*
X7731Y7285D01*
X7696Y7292D01*
X6857D01*
X6850Y7295D01*
X6837Y7295D01*
X6828Y7296D01*
X6824Y7296D01*
X6823Y7298D01*
X6820Y7305D01*
X6817Y7306D01*
X6806Y7323D01*
X6750Y7360D01*
X6683Y7373D01*
D02*
G37*
G36*
X8946Y5873D02*
X8479D01*
X8412Y5860D01*
X8356Y5823D01*
X8318Y5766D01*
X8305Y5700D01*
X8318Y5634D01*
X8356Y5577D01*
X8412Y5540D01*
X8479Y5527D01*
X8946D01*
X9012Y5540D01*
X9068Y5577D01*
X9106Y5634D01*
X9119Y5700D01*
X9106Y5766D01*
X9068Y5823D01*
X9012Y5860D01*
X8946Y5873D01*
D02*
G37*
G36*
X1573Y7205D02*
X928D01*
Y6495D01*
X1152D01*
X1158Y6491D01*
X1169Y6490D01*
X1172Y6489D01*
X1173Y6488D01*
X1177Y6485D01*
X1182Y6477D01*
X1187Y6463D01*
X1192Y6444D01*
X1196Y6420D01*
X1199Y6390D01*
X1200Y6354D01*
X1202Y6350D01*
Y5282D01*
X535Y4615D01*
X499Y4562D01*
X487Y4500D01*
Y3132D01*
X499Y3069D01*
X535Y3016D01*
X1774Y1777D01*
X1827Y1742D01*
X1889Y1729D01*
X2618D01*
X2680Y1742D01*
X2733Y1777D01*
X2982Y2025D01*
X3017Y2078D01*
X3030Y2141D01*
Y2875D01*
X3017Y2937D01*
X2982Y2990D01*
X2888Y3084D01*
X2835Y3119D01*
X2834Y3119D01*
X2839Y3169D01*
X3002D01*
X3037Y3176D01*
X3066Y3196D01*
X3128Y3258D01*
X3347D01*
X3354Y3255D01*
X3355Y3255D01*
Y3162D01*
X3711D01*
Y3538D01*
X3355D01*
Y3445D01*
X3354Y3445D01*
X3347Y3442D01*
X3090D01*
X3055Y3435D01*
X3026Y3415D01*
X2964Y3353D01*
X2774D01*
X2767Y3356D01*
X2766Y3356D01*
Y3628D01*
X2779Y3636D01*
X2844Y3702D01*
X2844Y3702D01*
X2862Y3728D01*
X2868Y3759D01*
X2883Y3803D01*
X4654D01*
X4654Y3803D01*
X4685Y3810D01*
X4712Y3827D01*
X5416Y4532D01*
X5462Y4513D01*
Y4322D01*
X5838D01*
Y4405D01*
X5838Y4405D01*
X5846Y4408D01*
X6016D01*
X6052Y4415D01*
X6081Y4435D01*
X6158Y4512D01*
X6166Y4515D01*
X6175Y4524D01*
X6182Y4530D01*
X6186Y4533D01*
X6187Y4532D01*
X6195Y4529D01*
X6197Y4530D01*
X6216Y4527D01*
X6683D01*
X6750Y4540D01*
X6806Y4577D01*
X6817Y4594D01*
X6820Y4595D01*
X6823Y4602D01*
X6823Y4603D01*
X6838Y4605D01*
X6850Y4605D01*
X6857Y4608D01*
X7054D01*
X7078Y4613D01*
X7093Y4593D01*
X7168Y4536D01*
X7256Y4499D01*
X7350Y4487D01*
X7444Y4499D01*
X7532Y4536D01*
X7607Y4593D01*
X7664Y4668D01*
X7701Y4756D01*
X7713Y4850D01*
X7701Y4944D01*
X7664Y5032D01*
X7607Y5107D01*
X7532Y5164D01*
X7454Y5196D01*
X7449Y5225D01*
X7454Y5254D01*
X7532Y5286D01*
X7607Y5343D01*
X7664Y5418D01*
X7701Y5506D01*
X7713Y5600D01*
X7701Y5694D01*
X7664Y5782D01*
X7607Y5857D01*
X7532Y5914D01*
X7444Y5951D01*
X7350Y5963D01*
X7256Y5951D01*
X7168Y5914D01*
X7093Y5857D01*
X7036Y5782D01*
X6999Y5694D01*
X6987Y5602D01*
X6985Y5597D01*
X6985Y5550D01*
X6984Y5508D01*
X6977Y5434D01*
X6973Y5405D01*
X6967Y5380D01*
X6961Y5359D01*
X6954Y5344D01*
X6949Y5334D01*
X6940Y5324D01*
X6938Y5318D01*
X6912Y5292D01*
X6857D01*
X6850Y5295D01*
X6837Y5295D01*
X6828Y5296D01*
X6824Y5296D01*
X6823Y5298D01*
X6820Y5305D01*
X6817Y5306D01*
X6806Y5323D01*
X6750Y5360D01*
X6683Y5373D01*
X6216D01*
X6150Y5360D01*
X6094Y5323D01*
X6083Y5306D01*
X6080Y5305D01*
X6077Y5298D01*
X6077Y5297D01*
X6062Y5295D01*
X6050Y5295D01*
X6043Y5292D01*
X5896D01*
X5888Y5295D01*
X5888Y5295D01*
Y5411D01*
X5526D01*
Y5637D01*
X6011Y6123D01*
X6071Y6112D01*
X6094Y6077D01*
X6150Y6040D01*
X6216Y6027D01*
X6371D01*
X6375Y6007D01*
X6389Y5985D01*
X6392Y5980D01*
Y5920D01*
X6389Y5915D01*
X6375Y5893D01*
X6371Y5873D01*
X6216D01*
X6150Y5860D01*
X6094Y5823D01*
X6056Y5766D01*
X6043Y5700D01*
X6056Y5634D01*
X6094Y5577D01*
X6150Y5540D01*
X6216Y5527D01*
X6683D01*
X6750Y5540D01*
X6806Y5577D01*
X6844Y5634D01*
X6857Y5700D01*
X6844Y5766D01*
X6844Y5766D01*
X6850Y5827D01*
X7041Y6018D01*
X7041Y6018D01*
X7059Y6045D01*
X7065Y6076D01*
X7065Y6076D01*
Y6324D01*
X7065Y6324D01*
X7059Y6355D01*
X7041Y6382D01*
X7041Y6382D01*
X6865Y6558D01*
X6857Y6563D01*
X6836Y6623D01*
X6844Y6634D01*
X6857Y6700D01*
X6844Y6766D01*
X6806Y6823D01*
X6750Y6860D01*
X6683Y6873D01*
X6216D01*
X6150Y6860D01*
X6094Y6823D01*
X6083Y6806D01*
X6080Y6805D01*
X6077Y6798D01*
X6077Y6797D01*
X6062Y6795D01*
X6050Y6795D01*
X6043Y6792D01*
X5896D01*
X5888Y6795D01*
X5888Y6795D01*
Y6911D01*
X5512D01*
Y6555D01*
X5888D01*
Y6605D01*
X5888Y6605D01*
X5896Y6608D01*
X6018D01*
X6033Y6558D01*
X6032Y6558D01*
X6032Y6558D01*
X5257Y5783D01*
X5239Y5756D01*
X5233Y5725D01*
X5233Y5725D01*
Y4763D01*
X4566Y4097D01*
X3754D01*
X3711Y4112D01*
Y4488D01*
X3355D01*
Y4395D01*
X3354Y4395D01*
X3347Y4392D01*
X3155D01*
X3040Y4507D01*
X3010Y4527D01*
X2975Y4534D01*
X2774D01*
X2767Y4537D01*
X2766Y4537D01*
Y4717D01*
Y5073D01*
X2261D01*
X2249Y5088D01*
X2234Y5161D01*
X2192Y5223D01*
X2130Y5265D01*
X2057Y5279D01*
X1984Y5265D01*
X1921Y5223D01*
X1880Y5161D01*
X1865Y5088D01*
X1880Y5014D01*
X1921Y4952D01*
X1926Y4907D01*
X1875Y4905D01*
X1528Y5253D01*
Y6351D01*
X1530Y6355D01*
X1530Y6392D01*
X1534Y6452D01*
X1537Y6474D01*
X1540Y6491D01*
X1541Y6495D01*
X1573D01*
Y6547D01*
X1577Y6556D01*
X1574Y6563D01*
X1575Y6570D01*
X1573Y6573D01*
Y7205D01*
D02*
G37*
G36*
X4450Y6164D02*
X4330Y6148D01*
X4218Y6102D01*
X4122Y6028D01*
X4048Y5932D01*
X4002Y5820D01*
X3986Y5700D01*
X4002Y5580D01*
X4048Y5468D01*
X4122Y5372D01*
X4218Y5298D01*
X4330Y5252D01*
X4450Y5236D01*
X4570Y5252D01*
X4682Y5298D01*
X4778Y5372D01*
X4852Y5468D01*
X4898Y5580D01*
X4914Y5700D01*
X4898Y5820D01*
X4852Y5932D01*
X4778Y6028D01*
X4682Y6102D01*
X4570Y6148D01*
X4450Y6164D01*
D02*
G37*
G36*
X8946Y5373D02*
X8479D01*
X8412Y5360D01*
X8356Y5323D01*
X8318Y5266D01*
X8305Y5200D01*
X8318Y5134D01*
X8356Y5077D01*
X8412Y5040D01*
X8479Y5027D01*
X8946D01*
X9012Y5040D01*
X9068Y5077D01*
X9106Y5134D01*
X9119Y5200D01*
X9106Y5266D01*
X9068Y5323D01*
X9012Y5360D01*
X8946Y5373D01*
D02*
G37*
G36*
Y4873D02*
X8479D01*
X8412Y4860D01*
X8356Y4823D01*
X8318Y4766D01*
X8305Y4700D01*
X8318Y4634D01*
X8356Y4577D01*
X8412Y4540D01*
X8479Y4527D01*
X8946D01*
X9012Y4540D01*
X9068Y4577D01*
X9106Y4634D01*
X9119Y4700D01*
X9106Y4766D01*
X9068Y4823D01*
X9012Y4860D01*
X8946Y4873D01*
D02*
G37*
G36*
X9850Y5963D02*
X9756Y5951D01*
X9668Y5914D01*
X9593Y5857D01*
X9536Y5782D01*
X9499Y5694D01*
X9487Y5600D01*
X9499Y5506D01*
X9536Y5418D01*
X9590Y5348D01*
X9592Y5342D01*
X9600Y5333D01*
X9606Y5324D01*
X9612Y5313D01*
X9618Y5299D01*
X9623Y5283D01*
X9627Y5264D01*
X9630Y5242D01*
X9635Y5189D01*
X9635Y5159D01*
X9636Y5157D01*
Y4114D01*
X9586Y4064D01*
X8762D01*
X8680Y4048D01*
X8643Y4023D01*
X8529D01*
X8462Y4010D01*
X8406Y3973D01*
X8368Y3916D01*
X8355Y3850D01*
X8368Y3784D01*
X8406Y3727D01*
X8459Y3692D01*
X8460Y3688D01*
X8436Y3642D01*
X8043D01*
X8008Y3635D01*
X7978Y3615D01*
X7805Y3442D01*
X6907D01*
X6900Y3445D01*
X6887Y3445D01*
X6878Y3446D01*
X6874Y3446D01*
X6873Y3448D01*
X6870Y3455D01*
X6867Y3456D01*
X6856Y3473D01*
X6800Y3510D01*
X6733Y3523D01*
X6266D01*
X6200Y3510D01*
X6144Y3473D01*
X6106Y3416D01*
X6093Y3350D01*
X6106Y3284D01*
X6144Y3227D01*
X6200Y3190D01*
X6266Y3177D01*
X6733D01*
X6800Y3190D01*
X6856Y3227D01*
X6867Y3244D01*
X6870Y3245D01*
X6873Y3252D01*
X6873Y3253D01*
X6888Y3255D01*
X6900Y3255D01*
X6907Y3258D01*
X7843D01*
X7878Y3265D01*
X7908Y3285D01*
X8081Y3458D01*
X8342D01*
X8367Y3408D01*
X8355Y3350D01*
X8368Y3284D01*
X8406Y3227D01*
X8462Y3190D01*
X8529Y3177D01*
X8996D01*
X9062Y3190D01*
X9118Y3227D01*
X9156Y3284D01*
X9169Y3350D01*
X9157Y3408D01*
X9182Y3458D01*
X9562D01*
X10166Y2854D01*
X10168Y2848D01*
X10176Y2839D01*
X10181Y2830D01*
X10187Y2816D01*
X10193Y2798D01*
X10198Y2776D01*
X10202Y2750D01*
X10209Y2644D01*
X10210Y2603D01*
X10212Y2597D01*
X10223Y2512D01*
X10257Y2431D01*
X10311Y2361D01*
X10381Y2307D01*
X10462Y2273D01*
X10550Y2262D01*
X10638Y2273D01*
X10719Y2307D01*
X10789Y2361D01*
X10843Y2431D01*
X10877Y2512D01*
X10888Y2600D01*
X10877Y2688D01*
X10843Y2769D01*
X10789Y2839D01*
X10719Y2893D01*
X10638Y2927D01*
X10553Y2938D01*
X10547Y2940D01*
X10505Y2941D01*
X10467Y2942D01*
X10400Y2948D01*
X10374Y2952D01*
X10352Y2957D01*
X10334Y2963D01*
X10320Y2969D01*
X10311Y2974D01*
X10302Y2982D01*
X10295Y3002D01*
X10326Y3052D01*
X10885D01*
Y3722D01*
X10215D01*
Y3131D01*
X10168Y3111D01*
X9692Y3588D01*
X9708Y3643D01*
X9757Y3652D01*
X9826Y3699D01*
X10002Y3874D01*
X10048Y3944D01*
X10065Y4026D01*
Y5156D01*
X10065Y5158D01*
X10068Y5218D01*
X10070Y5242D01*
X10074Y5264D01*
X10078Y5283D01*
X10083Y5300D01*
X10089Y5314D01*
X10095Y5325D01*
X10100Y5333D01*
X10109Y5343D01*
X10111Y5349D01*
X10164Y5418D01*
X10201Y5506D01*
X10213Y5600D01*
X10201Y5694D01*
X10164Y5782D01*
X10107Y5857D01*
X10032Y5914D01*
X9944Y5951D01*
X9850Y5963D01*
D02*
G37*
G36*
X8996Y3023D02*
X8529D01*
X8462Y3010D01*
X8406Y2973D01*
X8368Y2916D01*
X8355Y2850D01*
X8368Y2784D01*
X8406Y2727D01*
X8462Y2690D01*
X8529Y2677D01*
X8996D01*
X9062Y2690D01*
X9118Y2727D01*
X9156Y2784D01*
X9169Y2850D01*
X9156Y2916D01*
X9118Y2973D01*
X9062Y3010D01*
X8996Y3023D01*
D02*
G37*
G36*
X6733Y2523D02*
X6266D01*
X6200Y2510D01*
X6144Y2473D01*
X6106Y2416D01*
X6093Y2350D01*
X6097Y2331D01*
X6096Y2328D01*
X6099Y2321D01*
X6099Y2319D01*
X6090Y2308D01*
X6082Y2299D01*
X6079Y2292D01*
X6028Y2242D01*
X5570D01*
X5563Y2245D01*
X5563Y2245D01*
Y2338D01*
X5207D01*
Y1962D01*
X5563D01*
Y2055D01*
X5563Y2055D01*
X5570Y2058D01*
X6066D01*
X6102Y2065D01*
X6131Y2085D01*
X6208Y2162D01*
X6216Y2165D01*
X6225Y2174D01*
X6232Y2180D01*
X6236Y2183D01*
X6237Y2183D01*
X6245Y2179D01*
X6247Y2180D01*
X6266Y2177D01*
X6733D01*
X6800Y2190D01*
X6856Y2227D01*
X6894Y2284D01*
X6907Y2350D01*
X6894Y2416D01*
X6856Y2473D01*
X6800Y2510D01*
X6733Y2523D01*
D02*
G37*
G36*
Y3023D02*
X6266D01*
X6200Y3010D01*
X6144Y2973D01*
X6106Y2916D01*
X6093Y2850D01*
X6106Y2784D01*
X6144Y2727D01*
X6200Y2690D01*
X6266Y2677D01*
X6733D01*
X6753Y2680D01*
X6755Y2679D01*
X6763Y2682D01*
X6764Y2683D01*
X6776Y2673D01*
X6784Y2665D01*
X6792Y2662D01*
X7369Y2085D01*
X7398Y2065D01*
X7434Y2058D01*
X8436D01*
X8460Y2012D01*
X8459Y2008D01*
X8406Y1973D01*
X8368Y1916D01*
X8355Y1850D01*
X8368Y1784D01*
X8406Y1727D01*
X8462Y1690D01*
X8529Y1677D01*
X8996D01*
X9062Y1690D01*
X9118Y1727D01*
X9151Y1777D01*
X9204Y1795D01*
X9251Y1747D01*
X9281Y1727D01*
X9316Y1720D01*
X10099D01*
X10105Y1717D01*
X10117Y1716D01*
X10127Y1714D01*
X10140Y1708D01*
X10157Y1699D01*
X10177Y1687D01*
X10198Y1672D01*
X10278Y1602D01*
X10307Y1573D01*
X10313Y1571D01*
X10381Y1519D01*
X10462Y1485D01*
X10550Y1474D01*
X10638Y1485D01*
X10719Y1519D01*
X10789Y1573D01*
X10843Y1643D01*
X10877Y1724D01*
X10888Y1812D01*
X10877Y1900D01*
X10843Y1981D01*
X10789Y2051D01*
X10719Y2105D01*
X10638Y2139D01*
X10550Y2150D01*
X10462Y2139D01*
X10381Y2105D01*
X10313Y2053D01*
X10307Y2051D01*
X10277Y2021D01*
X10249Y1995D01*
X10198Y1952D01*
X10177Y1937D01*
X10157Y1925D01*
X10140Y1916D01*
X10127Y1910D01*
X10117Y1908D01*
X10105Y1907D01*
X10099Y1904D01*
X9354D01*
X9094Y2165D01*
X9098Y2214D01*
X9118Y2227D01*
X9156Y2284D01*
X9169Y2350D01*
X9156Y2416D01*
X9118Y2473D01*
X9062Y2510D01*
X8996Y2523D01*
X8529D01*
X8462Y2510D01*
X8406Y2473D01*
X8368Y2416D01*
X8355Y2350D01*
X8367Y2292D01*
X8342Y2242D01*
X7472D01*
X6921Y2792D01*
X6918Y2799D01*
X6910Y2808D01*
X6904Y2815D01*
X6901Y2819D01*
X6901Y2821D01*
X6904Y2828D01*
X6903Y2831D01*
X6907Y2850D01*
X6894Y2916D01*
X6856Y2973D01*
X6800Y3010D01*
X6733Y3023D01*
D02*
G37*
G36*
X8996Y1523D02*
X8529D01*
X8462Y1510D01*
X8406Y1473D01*
X8368Y1416D01*
X8355Y1350D01*
X8368Y1284D01*
X8406Y1227D01*
X8462Y1190D01*
X8529Y1177D01*
X8996D01*
X9062Y1190D01*
X9118Y1227D01*
X9156Y1284D01*
X9169Y1350D01*
X9156Y1416D01*
X9118Y1473D01*
X9062Y1510D01*
X8996Y1523D01*
D02*
G37*
G36*
X6733Y2023D02*
X6266D01*
X6200Y2010D01*
X6144Y1973D01*
X6106Y1916D01*
X6093Y1850D01*
X6106Y1784D01*
X6144Y1727D01*
X6200Y1690D01*
X6266Y1677D01*
X6421D01*
X6425Y1657D01*
X6439Y1635D01*
X6442Y1630D01*
Y1570D01*
X6439Y1565D01*
X6425Y1543D01*
X6421Y1523D01*
X6266D01*
X6200Y1510D01*
X6144Y1473D01*
X6106Y1416D01*
X6093Y1350D01*
X6106Y1284D01*
X6144Y1227D01*
X6200Y1190D01*
X6266Y1177D01*
X6733D01*
X6800Y1190D01*
X6856Y1227D01*
X6894Y1284D01*
X6907Y1350D01*
X6896Y1403D01*
X6924Y1453D01*
X7139D01*
X7235Y1358D01*
X7233Y1351D01*
X7227Y1339D01*
X7218Y1325D01*
X7207Y1310D01*
X7193Y1295D01*
X7177Y1279D01*
X7157Y1262D01*
X7133Y1243D01*
X7130Y1237D01*
X7123Y1234D01*
X7121Y1228D01*
X7093Y1207D01*
X7036Y1132D01*
X6999Y1044D01*
X6987Y950D01*
X6999Y856D01*
X7036Y768D01*
X7093Y693D01*
X7168Y636D01*
X7256Y599D01*
X7350Y587D01*
X7444Y599D01*
X7532Y636D01*
X7607Y693D01*
X7664Y768D01*
X7701Y856D01*
X7713Y950D01*
X7701Y1044D01*
X7674Y1108D01*
X7696Y1136D01*
X7712Y1149D01*
X7800Y1137D01*
X7894Y1149D01*
X7982Y1186D01*
X8057Y1243D01*
X8114Y1318D01*
X8151Y1406D01*
X8163Y1500D01*
X8151Y1594D01*
X8114Y1682D01*
X8057Y1757D01*
X7982Y1814D01*
X7894Y1851D01*
X7800Y1863D01*
X7706Y1851D01*
X7618Y1814D01*
X7543Y1757D01*
X7486Y1682D01*
X7459Y1619D01*
X7410Y1604D01*
X7400Y1608D01*
X7285Y1723D01*
X7258Y1740D01*
X7227Y1747D01*
X7227Y1747D01*
X6924D01*
X6896Y1797D01*
X6907Y1850D01*
X6894Y1916D01*
X6856Y1973D01*
X6800Y2010D01*
X6733Y2023D01*
D02*
G37*
G36*
X8996Y1023D02*
X8529D01*
X8462Y1010D01*
X8406Y973D01*
X8368Y916D01*
X8355Y850D01*
X8368Y784D01*
X8406Y727D01*
X8462Y690D01*
X8529Y677D01*
X8996D01*
X9062Y690D01*
X9118Y727D01*
X9156Y784D01*
X9169Y850D01*
X9156Y916D01*
X9118Y973D01*
X9062Y1010D01*
X8996Y1023D01*
D02*
G37*
G36*
X4450Y2642D02*
X3900D01*
X3865Y2635D01*
X3835Y2615D01*
X3590Y2369D01*
X3582Y2367D01*
X3559Y2345D01*
X3552Y2339D01*
X3552Y2339D01*
X3549Y2340D01*
X3544Y2338D01*
X3538Y2340D01*
X3533Y2338D01*
X3322D01*
Y1962D01*
X3405D01*
X3405Y1962D01*
X3408Y1954D01*
Y1838D01*
X3045Y1475D01*
X3040Y1474D01*
X3026Y1463D01*
X3011Y1455D01*
X2989Y1446D01*
X2960Y1438D01*
X2925Y1430D01*
X2884Y1425D01*
X2719Y1415D01*
X2654Y1415D01*
X2651Y1414D01*
X2650Y1414D01*
X2530Y1398D01*
X2418Y1352D01*
X2322Y1278D01*
X2248Y1182D01*
X2202Y1070D01*
X2186Y950D01*
X2202Y830D01*
X2248Y718D01*
X2322Y622D01*
X2418Y548D01*
X2530Y502D01*
X2650Y486D01*
X2770Y502D01*
X2882Y548D01*
X2978Y622D01*
X3052Y718D01*
X3098Y830D01*
X3114Y950D01*
X3114Y951D01*
X3115Y953D01*
X3117Y1080D01*
X3125Y1183D01*
X3131Y1225D01*
X3138Y1260D01*
X3146Y1289D01*
X3155Y1311D01*
X3163Y1326D01*
X3174Y1340D01*
X3175Y1345D01*
X3565Y1735D01*
X3585Y1765D01*
X3592Y1800D01*
Y1954D01*
X3595Y1962D01*
X3595Y1962D01*
X3678D01*
Y2171D01*
X3680Y2174D01*
X3678Y2182D01*
Y2186D01*
X3678Y2186D01*
X3682Y2192D01*
X3713Y2228D01*
X3727Y2243D01*
X3730Y2250D01*
X3731Y2251D01*
X3737Y2256D01*
X3737Y2257D01*
X3938Y2458D01*
X4412D01*
X4486Y2384D01*
X4467Y2338D01*
X4289D01*
Y1962D01*
X4372D01*
X4372Y1962D01*
X4376Y1954D01*
Y1683D01*
X4383Y1648D01*
X4402Y1618D01*
X4551Y1469D01*
X4547Y1457D01*
X4540Y1445D01*
X4532Y1432D01*
X4521Y1419D01*
X4507Y1406D01*
X4490Y1393D01*
X4470Y1381D01*
X4445Y1367D01*
X4439Y1361D01*
X4418Y1352D01*
X4322Y1278D01*
X4248Y1182D01*
X4202Y1070D01*
X4186Y950D01*
X4202Y830D01*
X4248Y718D01*
X4322Y622D01*
X4418Y548D01*
X4530Y502D01*
X4650Y486D01*
X4770Y502D01*
X4853Y536D01*
X4862Y536D01*
X4876Y543D01*
X4885Y546D01*
X4892Y547D01*
X4899Y548D01*
X4905Y547D01*
X4910Y546D01*
X4916Y544D01*
X4923Y540D01*
X4930Y535D01*
X4941Y525D01*
X4955Y520D01*
X4970Y510D01*
X5005Y503D01*
X5984D01*
X6079Y408D01*
X6082Y401D01*
X6090Y392D01*
X6096Y385D01*
X6099Y381D01*
X6099Y379D01*
X6096Y372D01*
X6097Y369D01*
X6093Y350D01*
X6106Y284D01*
X6144Y227D01*
X6200Y190D01*
X6266Y177D01*
X6733D01*
X6800Y190D01*
X6856Y227D01*
X6894Y284D01*
X6907Y350D01*
X6894Y416D01*
X6856Y473D01*
X6800Y510D01*
X6733Y523D01*
X6266D01*
X6247Y520D01*
X6245Y521D01*
X6237Y518D01*
X6236Y517D01*
X6224Y527D01*
X6216Y535D01*
X6208Y538D01*
X6087Y659D01*
X6057Y679D01*
X6022Y686D01*
X5097D01*
X5089Y690D01*
X5084Y694D01*
X5078Y700D01*
X5063Y736D01*
X5064Y738D01*
X5064Y747D01*
X5098Y830D01*
X5114Y950D01*
X5098Y1070D01*
X5052Y1182D01*
X4978Y1278D01*
X4882Y1352D01*
X4861Y1361D01*
X4855Y1367D01*
X4830Y1381D01*
X4810Y1393D01*
X4793Y1406D01*
X4779Y1419D01*
X4768Y1432D01*
X4760Y1445D01*
X4753Y1457D01*
X4749Y1471D01*
X4746Y1485D01*
X4745Y1504D01*
X4738Y1517D01*
X4735Y1535D01*
X4715Y1565D01*
X4559Y1721D01*
Y1912D01*
X4607Y1959D01*
X4612Y1959D01*
X5785Y785D01*
X5815Y765D01*
X5850Y758D01*
X6093D01*
X6100Y755D01*
X6113Y755D01*
X6122Y754D01*
X6126Y754D01*
X6127Y752D01*
X6130Y745D01*
X6133Y744D01*
X6144Y727D01*
X6200Y690D01*
X6266Y677D01*
X6733D01*
X6800Y690D01*
X6856Y727D01*
X6894Y784D01*
X6907Y850D01*
X6894Y916D01*
X6856Y973D01*
X6800Y1010D01*
X6733Y1023D01*
X6266D01*
X6200Y1010D01*
X6144Y973D01*
X6133Y956D01*
X6130Y955D01*
X6127Y948D01*
X6127Y947D01*
X6112Y945D01*
X6100Y945D01*
X6093Y942D01*
X5888D01*
X4767Y2063D01*
Y2325D01*
X4760Y2360D01*
X4740Y2389D01*
X4515Y2615D01*
X4485Y2635D01*
X4450Y2642D01*
D02*
G37*
G36*
X8996Y523D02*
X8529D01*
X8462Y510D01*
X8406Y473D01*
X8368Y416D01*
X8355Y350D01*
X8368Y284D01*
X8406Y227D01*
X8462Y190D01*
X8529Y177D01*
X8996D01*
X9062Y190D01*
X9118Y227D01*
X9156Y284D01*
X9169Y350D01*
X9156Y416D01*
X9118Y473D01*
X9062Y510D01*
X8996Y523D01*
D02*
G37*
%LPD*%
G36*
X6774Y7254D02*
X6777Y7249D01*
X6780Y7244D01*
X6786Y7241D01*
X6792Y7237D01*
X6801Y7235D01*
X6810Y7233D01*
X6822Y7231D01*
X6835Y7230D01*
X6849Y7230D01*
Y7170D01*
X6835Y7170D01*
X6810Y7167D01*
X6801Y7165D01*
X6792Y7163D01*
X6786Y7159D01*
X6780Y7156D01*
X6777Y7151D01*
X6774Y7146D01*
X6774Y7141D01*
Y7259D01*
X6774Y7254D01*
D02*
G37*
G36*
X10274Y6508D02*
X10291Y6498D01*
X10311Y6489D01*
X10335Y6482D01*
X10362Y6475D01*
X10392Y6470D01*
X10463Y6464D01*
X10503Y6463D01*
X10547Y6462D01*
X10275Y6190D01*
X10274Y6234D01*
X10267Y6345D01*
X10262Y6375D01*
X10255Y6402D01*
X10248Y6426D01*
X10239Y6446D01*
X10229Y6463D01*
X10218Y6476D01*
X10261Y6519D01*
X10274Y6508D01*
D02*
G37*
G36*
X6126Y6641D02*
X6126Y6646D01*
X6123Y6651D01*
X6120Y6656D01*
X6114Y6659D01*
X6108Y6663D01*
X6099Y6665D01*
X6090Y6667D01*
X6078Y6669D01*
X6065Y6670D01*
X6051Y6670D01*
Y6730D01*
X6065Y6730D01*
X6090Y6733D01*
X6099Y6735D01*
X6108Y6737D01*
X6114Y6741D01*
X6120Y6744D01*
X6123Y6749D01*
X6126Y6754D01*
X6126Y6759D01*
Y6641D01*
D02*
G37*
G36*
X5827Y6754D02*
X5829Y6749D01*
X5832Y6745D01*
X5836Y6741D01*
X5842Y6737D01*
X5848Y6735D01*
X5856Y6733D01*
X5865Y6731D01*
X5875Y6730D01*
X5887Y6730D01*
Y6670D01*
X5875Y6670D01*
X5865Y6669D01*
X5856Y6667D01*
X5848Y6665D01*
X5842Y6662D01*
X5836Y6659D01*
X5832Y6655D01*
X5829Y6651D01*
X5827Y6646D01*
X5827Y6640D01*
Y6760D01*
X5827Y6754D01*
D02*
G37*
G36*
X1503Y6554D02*
X1495Y6548D01*
X1488Y6538D01*
X1482Y6524D01*
X1477Y6506D01*
X1472Y6484D01*
X1469Y6458D01*
X1465Y6394D01*
X1465Y6356D01*
X1265D01*
X1264Y6394D01*
X1261Y6428D01*
X1256Y6458D01*
X1249Y6484D01*
X1240Y6506D01*
X1229Y6524D01*
X1216Y6538D01*
X1201Y6548D01*
X1184Y6554D01*
X1165Y6556D01*
X1512D01*
X1503Y6554D01*
D02*
G37*
G36*
X6486Y6091D02*
X6483Y6090D01*
X6480Y6088D01*
X6477Y6085D01*
X6475Y6081D01*
X6473Y6077D01*
X6472Y6071D01*
X6471Y6065D01*
X6470Y6058D01*
X6470Y6050D01*
X6430D01*
X6430Y6058D01*
X6429Y6065D01*
X6428Y6071D01*
X6427Y6077D01*
X6425Y6081D01*
X6423Y6085D01*
X6420Y6088D01*
X6417Y6090D01*
X6414Y6091D01*
X6410Y6091D01*
X6490D01*
X6486Y6091D01*
D02*
G37*
G36*
X6470Y5842D02*
X6471Y5835D01*
X6472Y5829D01*
X6473Y5823D01*
X6475Y5819D01*
X6477Y5815D01*
X6480Y5812D01*
X6483Y5810D01*
X6486Y5809D01*
X6490Y5809D01*
X6410D01*
X6414Y5809D01*
X6417Y5810D01*
X6420Y5812D01*
X6423Y5815D01*
X6425Y5819D01*
X6427Y5823D01*
X6428Y5829D01*
X6429Y5835D01*
X6430Y5842D01*
X6430Y5850D01*
X6470D01*
X6470Y5842D01*
D02*
G37*
G36*
X7347Y5300D02*
X7298Y5300D01*
X7176Y5292D01*
X7142Y5286D01*
X7113Y5280D01*
X7087Y5272D01*
X7065Y5263D01*
X7047Y5252D01*
X7033Y5240D01*
X6990Y5283D01*
X7002Y5297D01*
X7013Y5315D01*
X7022Y5337D01*
X7030Y5363D01*
X7036Y5392D01*
X7042Y5426D01*
X7048Y5504D01*
X7050Y5548D01*
X7050Y5597D01*
X7347Y5300D01*
D02*
G37*
G36*
X6774Y5254D02*
X6777Y5249D01*
X6780Y5244D01*
X6786Y5241D01*
X6792Y5237D01*
X6801Y5235D01*
X6810Y5233D01*
X6822Y5231D01*
X6835Y5230D01*
X6849Y5230D01*
Y5170D01*
X6835Y5170D01*
X6810Y5167D01*
X6801Y5165D01*
X6792Y5163D01*
X6786Y5159D01*
X6780Y5156D01*
X6777Y5151D01*
X6774Y5146D01*
X6774Y5141D01*
Y5259D01*
X6774Y5254D01*
D02*
G37*
G36*
X6126Y5141D02*
X6126Y5146D01*
X6123Y5151D01*
X6120Y5156D01*
X6114Y5159D01*
X6108Y5163D01*
X6099Y5165D01*
X6090Y5167D01*
X6078Y5169D01*
X6065Y5170D01*
X6051Y5170D01*
Y5230D01*
X6065Y5230D01*
X6090Y5233D01*
X6099Y5235D01*
X6108Y5237D01*
X6114Y5241D01*
X6120Y5244D01*
X6123Y5249D01*
X6126Y5254D01*
X6126Y5259D01*
Y5141D01*
D02*
G37*
G36*
X5826Y5254D02*
X5828Y5249D01*
X5831Y5245D01*
X5835Y5241D01*
X5841Y5238D01*
X5848Y5235D01*
X5856Y5233D01*
X5865Y5231D01*
X5875Y5230D01*
X5887Y5230D01*
Y5170D01*
X5875Y5170D01*
X5865Y5169D01*
X5856Y5167D01*
X5848Y5165D01*
X5841Y5163D01*
X5835Y5159D01*
X5831Y5155D01*
X5828Y5151D01*
X5826Y5146D01*
X5826Y5140D01*
Y5260D01*
X5826Y5254D01*
D02*
G37*
G36*
X7202Y5178D02*
X7168Y5164D01*
X7093Y5107D01*
X7036Y5032D01*
X6999Y4944D01*
X6987Y4850D01*
X6990Y4829D01*
X6957Y4792D01*
X6857D01*
X6850Y4795D01*
X6837Y4795D01*
X6828Y4796D01*
X6824Y4796D01*
X6823Y4798D01*
X6820Y4805D01*
X6817Y4806D01*
X6806Y4823D01*
X6750Y4860D01*
X6683Y4873D01*
X6216D01*
X6150Y4860D01*
X6094Y4823D01*
X6056Y4766D01*
X6043Y4700D01*
X6047Y4681D01*
X6046Y4678D01*
X6049Y4671D01*
X6049Y4669D01*
X6040Y4658D01*
X6032Y4649D01*
X6029Y4642D01*
X5978Y4592D01*
X5846D01*
X5838Y4595D01*
X5838Y4595D01*
Y4678D01*
X5526D01*
Y5055D01*
X5888D01*
Y5105D01*
X5888Y5105D01*
X5896Y5108D01*
X6043D01*
X6050Y5105D01*
X6063Y5105D01*
X6072Y5104D01*
X6076Y5104D01*
X6077Y5102D01*
X6080Y5095D01*
X6083Y5094D01*
X6094Y5077D01*
X6150Y5040D01*
X6216Y5027D01*
X6683D01*
X6750Y5040D01*
X6806Y5077D01*
X6817Y5094D01*
X6820Y5095D01*
X6823Y5102D01*
X6823Y5103D01*
X6838Y5105D01*
X6850Y5105D01*
X6857Y5108D01*
X6950D01*
X6985Y5115D01*
X7015Y5135D01*
X7068Y5189D01*
X7074Y5190D01*
X7084Y5199D01*
X7094Y5204D01*
X7109Y5211D01*
X7130Y5217D01*
X7155Y5223D01*
X7183Y5227D01*
X7190Y5228D01*
X7202Y5178D01*
D02*
G37*
G36*
X2255Y4778D02*
X2254Y4778D01*
X2253Y4778D01*
X2250Y4777D01*
X2195Y4777D01*
Y4837D01*
X2206Y4837D01*
X2217Y4838D01*
X2226Y4839D01*
X2233Y4842D01*
X2240Y4844D01*
X2245Y4848D01*
X2250Y4851D01*
X2253Y4856D01*
X2254Y4861D01*
X2255Y4867D01*
Y4778D01*
D02*
G37*
G36*
X7097Y4689D02*
X7075Y4679D01*
X7033Y4721D01*
X7039Y4728D01*
X7060Y4751D01*
X7062Y4754D01*
X7063Y4757D01*
X7064Y4759D01*
X7064Y4761D01*
X7097Y4689D01*
D02*
G37*
G36*
X6774Y4754D02*
X6777Y4749D01*
X6780Y4744D01*
X6786Y4741D01*
X6792Y4737D01*
X6801Y4735D01*
X6810Y4733D01*
X6822Y4731D01*
X6835Y4730D01*
X6849Y4730D01*
Y4670D01*
X6835Y4670D01*
X6810Y4667D01*
X6801Y4665D01*
X6792Y4663D01*
X6786Y4659D01*
X6780Y4656D01*
X6777Y4651D01*
X6774Y4646D01*
X6774Y4641D01*
Y4759D01*
X6774Y4754D01*
D02*
G37*
G36*
X6195Y4594D02*
X6190Y4598D01*
X6185Y4600D01*
X6179Y4600D01*
X6173Y4599D01*
X6166Y4597D01*
X6158Y4593D01*
X6150Y4587D01*
X6141Y4580D01*
X6131Y4572D01*
X6121Y4562D01*
X6078Y4604D01*
X6088Y4615D01*
X6104Y4633D01*
X6109Y4642D01*
X6113Y4649D01*
X6116Y4656D01*
X6117Y4663D01*
X6116Y4669D01*
X6114Y4674D01*
X6111Y4678D01*
X6195Y4594D01*
D02*
G37*
G36*
X5777Y4554D02*
X5779Y4549D01*
X5782Y4545D01*
X5786Y4541D01*
X5792Y4538D01*
X5798Y4535D01*
X5806Y4533D01*
X5815Y4531D01*
X5825Y4530D01*
X5837Y4530D01*
Y4470D01*
X5825Y4470D01*
X5815Y4469D01*
X5806Y4467D01*
X5798Y4465D01*
X5792Y4462D01*
X5786Y4459D01*
X5782Y4455D01*
X5779Y4451D01*
X5777Y4446D01*
X5777Y4440D01*
Y4560D01*
X5777Y4554D01*
D02*
G37*
G36*
X2706Y4495D02*
X2708Y4490D01*
X2711Y4486D01*
X2715Y4482D01*
X2720Y4479D01*
X2727Y4477D01*
X2735Y4475D01*
X2744Y4473D01*
X2754Y4472D01*
X2765Y4472D01*
Y4412D01*
X2754Y4412D01*
X2744Y4411D01*
X2735Y4410D01*
X2727Y4408D01*
X2720Y4405D01*
X2715Y4402D01*
X2711Y4399D01*
X2708Y4394D01*
X2706Y4390D01*
X2705Y4384D01*
Y4500D01*
X2706Y4495D01*
D02*
G37*
G36*
X3417Y4240D02*
X3416Y4246D01*
X3415Y4251D01*
X3411Y4255D01*
X3407Y4259D01*
X3402Y4263D01*
X3395Y4265D01*
X3387Y4267D01*
X3378Y4269D01*
X3367Y4270D01*
X3356Y4270D01*
Y4330D01*
X3367Y4330D01*
X3378Y4331D01*
X3387Y4333D01*
X3395Y4335D01*
X3402Y4338D01*
X3407Y4341D01*
X3411Y4345D01*
X3415Y4349D01*
X3416Y4354D01*
X3417Y4360D01*
Y4240D01*
D02*
G37*
G36*
X1833Y4242D02*
X1824Y4179D01*
X1823Y4151D01*
X1824Y4125D01*
X1828Y4102D01*
X1833Y4080D01*
X1841Y4061D01*
X1852Y4044D01*
X1864Y4029D01*
X1836Y4001D01*
X1821Y4013D01*
X1804Y4024D01*
X1785Y4033D01*
X1762Y4040D01*
X1737Y4046D01*
X1710Y4050D01*
X1680Y4053D01*
X1647Y4054D01*
X1574Y4051D01*
X1841Y4277D01*
X1833Y4242D01*
D02*
G37*
G36*
X2255Y3991D02*
X2255Y3991D01*
X2253Y3992D01*
X2251Y3993D01*
X2249Y3993D01*
X2245Y3994D01*
X2235Y3995D01*
X2215Y3995D01*
Y4035D01*
X2223Y4035D01*
X2229Y4036D01*
X2235Y4037D01*
X2241Y4038D01*
X2245Y4040D01*
X2249Y4042D01*
X2251Y4045D01*
X2253Y4048D01*
X2255Y4051D01*
X2255Y4055D01*
Y3991D01*
D02*
G37*
G36*
X1561Y4758D02*
X1537Y4711D01*
X1456Y4701D01*
X1368Y4664D01*
X1293Y4607D01*
X1236Y4532D01*
X1199Y4444D01*
X1187Y4350D01*
X1199Y4256D01*
X1236Y4168D01*
X1293Y4093D01*
X1368Y4036D01*
X1456Y3999D01*
X1550Y3987D01*
X1564Y3989D01*
X1569Y3986D01*
X1573Y3988D01*
X1577Y3986D01*
X1648Y3989D01*
X1676Y3988D01*
X1702Y3986D01*
X1711Y3985D01*
X1730Y3950D01*
X1711Y3915D01*
X1702Y3914D01*
X1677Y3912D01*
X1614Y3912D01*
X1578Y3914D01*
X1573Y3912D01*
X1569Y3914D01*
X1564Y3911D01*
X1550Y3913D01*
X1456Y3901D01*
X1368Y3864D01*
X1293Y3807D01*
X1236Y3732D01*
X1199Y3644D01*
X1187Y3550D01*
X1199Y3456D01*
X1236Y3368D01*
X1293Y3293D01*
X1368Y3236D01*
X1456Y3199D01*
X1550Y3187D01*
X1644Y3199D01*
X1732Y3236D01*
X1807Y3293D01*
X1864Y3368D01*
X1901Y3456D01*
X1913Y3550D01*
X1904Y3622D01*
X1906Y3628D01*
X1904Y3632D01*
X1904Y3637D01*
X1897Y3670D01*
X1892Y3699D01*
X1889Y3726D01*
X1888Y3749D01*
X1889Y3769D01*
X1891Y3785D01*
X1895Y3799D01*
X1897Y3803D01*
X2194D01*
Y3339D01*
Y3007D01*
X2144Y2980D01*
X2130Y2989D01*
X2057Y3004D01*
X1984Y2989D01*
X1921Y2948D01*
X1880Y2886D01*
X1865Y2812D01*
X1880Y2739D01*
X1921Y2677D01*
X1984Y2635D01*
X2057Y2621D01*
X2130Y2635D01*
X2192Y2677D01*
X2234Y2739D01*
X2249Y2812D01*
X2261Y2827D01*
X2404D01*
X2418Y2818D01*
X2480Y2805D01*
X2703D01*
Y2208D01*
X2551Y2055D01*
X1957D01*
X813Y3199D01*
Y4432D01*
X1350Y4969D01*
X1561Y4758D01*
D02*
G37*
G36*
X1864Y3871D02*
X1852Y3856D01*
X1841Y3839D01*
X1833Y3820D01*
X1828Y3798D01*
X1824Y3775D01*
X1823Y3749D01*
X1824Y3721D01*
X1828Y3690D01*
X1833Y3658D01*
X1841Y3623D01*
X1574Y3849D01*
X1612Y3847D01*
X1680Y3847D01*
X1710Y3850D01*
X1737Y3854D01*
X1762Y3860D01*
X1785Y3867D01*
X1804Y3876D01*
X1821Y3887D01*
X1836Y3899D01*
X1864Y3871D01*
D02*
G37*
G36*
X2255Y3845D02*
X2255Y3849D01*
X2253Y3852D01*
X2251Y3855D01*
X2249Y3858D01*
X2245Y3860D01*
X2241Y3862D01*
X2235Y3863D01*
X2229Y3864D01*
X2223Y3865D01*
X2215Y3865D01*
Y3905D01*
X2223Y3905D01*
X2249Y3907D01*
X2251Y3907D01*
X2253Y3908D01*
X2255Y3909D01*
X2255Y3909D01*
Y3845D01*
D02*
G37*
G36*
X3417Y3290D02*
X3416Y3296D01*
X3415Y3301D01*
X3411Y3305D01*
X3407Y3309D01*
X3402Y3313D01*
X3395Y3315D01*
X3387Y3317D01*
X3378Y3319D01*
X3367Y3320D01*
X3356Y3320D01*
Y3380D01*
X3367Y3380D01*
X3378Y3381D01*
X3387Y3383D01*
X3395Y3385D01*
X3402Y3388D01*
X3407Y3391D01*
X3411Y3395D01*
X3415Y3399D01*
X3416Y3404D01*
X3417Y3410D01*
Y3290D01*
D02*
G37*
G36*
X2706Y3314D02*
X2708Y3309D01*
X2711Y3305D01*
X2715Y3301D01*
X2720Y3298D01*
X2727Y3296D01*
X2735Y3294D01*
X2744Y3292D01*
X2754Y3291D01*
X2765Y3291D01*
Y3231D01*
X2754Y3231D01*
X2744Y3230D01*
X2735Y3229D01*
X2727Y3227D01*
X2720Y3224D01*
X2715Y3221D01*
X2711Y3217D01*
X2708Y3213D01*
X2706Y3208D01*
X2705Y3203D01*
Y3319D01*
X2706Y3314D01*
D02*
G37*
G36*
X10049Y5373D02*
X10039Y5358D01*
X10030Y5341D01*
X10022Y5322D01*
X10015Y5300D01*
X10010Y5277D01*
X10006Y5251D01*
X10003Y5223D01*
X10000Y5160D01*
X9700Y5160D01*
X9700Y5192D01*
X9695Y5250D01*
X9691Y5276D01*
X9685Y5300D01*
X9679Y5321D01*
X9671Y5340D01*
X9662Y5358D01*
X9652Y5373D01*
X9640Y5385D01*
X10060Y5386D01*
X10049Y5373D01*
D02*
G37*
G36*
X6824Y3404D02*
X6827Y3399D01*
X6830Y3394D01*
X6836Y3391D01*
X6842Y3387D01*
X6851Y3385D01*
X6860Y3383D01*
X6872Y3381D01*
X6885Y3380D01*
X6899Y3380D01*
Y3320D01*
X6885Y3320D01*
X6860Y3317D01*
X6851Y3315D01*
X6842Y3313D01*
X6836Y3309D01*
X6830Y3306D01*
X6827Y3301D01*
X6824Y3296D01*
X6824Y3291D01*
Y3409D01*
X6824Y3404D01*
D02*
G37*
G36*
X10274Y2921D02*
X10291Y2911D01*
X10311Y2902D01*
X10335Y2895D01*
X10362Y2888D01*
X10392Y2883D01*
X10463Y2877D01*
X10503Y2876D01*
X10547Y2875D01*
X10275Y2603D01*
X10274Y2647D01*
X10267Y2758D01*
X10262Y2788D01*
X10255Y2815D01*
X10248Y2839D01*
X10239Y2859D01*
X10229Y2876D01*
X10218Y2889D01*
X10261Y2932D01*
X10274Y2921D01*
D02*
G37*
G36*
X6245Y2244D02*
X6240Y2248D01*
X6235Y2250D01*
X6229Y2250D01*
X6223Y2249D01*
X6216Y2247D01*
X6208Y2243D01*
X6200Y2237D01*
X6191Y2230D01*
X6181Y2222D01*
X6171Y2212D01*
X6128Y2254D01*
X6138Y2265D01*
X6154Y2283D01*
X6159Y2292D01*
X6163Y2299D01*
X6166Y2306D01*
X6167Y2313D01*
X6166Y2319D01*
X6164Y2324D01*
X6161Y2328D01*
X6245Y2244D01*
D02*
G37*
G36*
X5501Y2204D02*
X5503Y2199D01*
X5506Y2195D01*
X5510Y2191D01*
X5516Y2188D01*
X5522Y2185D01*
X5530Y2183D01*
X5540Y2181D01*
X5550Y2180D01*
X5562Y2180D01*
Y2120D01*
X5550Y2120D01*
X5540Y2119D01*
X5530Y2117D01*
X5522Y2115D01*
X5516Y2113D01*
X5510Y2109D01*
X5506Y2105D01*
X5503Y2101D01*
X5501Y2096D01*
X5500Y2090D01*
Y2210D01*
X5501Y2204D01*
D02*
G37*
G36*
X6836Y2824D02*
X6834Y2819D01*
X6833Y2813D01*
X6834Y2806D01*
X6837Y2799D01*
X6841Y2792D01*
X6846Y2783D01*
X6853Y2774D01*
X6862Y2765D01*
X6872Y2754D01*
X6829Y2712D01*
X6819Y2722D01*
X6800Y2737D01*
X6792Y2743D01*
X6784Y2747D01*
X6777Y2749D01*
X6771Y2750D01*
X6765Y2750D01*
X6760Y2748D01*
X6755Y2744D01*
X6839Y2828D01*
X6836Y2824D01*
D02*
G37*
G36*
X10353Y1619D02*
X10322Y1650D01*
X10238Y1723D01*
X10213Y1741D01*
X10189Y1756D01*
X10167Y1767D01*
X10147Y1775D01*
X10128Y1780D01*
X10111Y1782D01*
Y1842D01*
X10128Y1844D01*
X10147Y1849D01*
X10167Y1857D01*
X10189Y1868D01*
X10213Y1883D01*
X10238Y1901D01*
X10292Y1946D01*
X10322Y1974D01*
X10353Y2005D01*
Y1619D01*
D02*
G37*
G36*
X6536Y1741D02*
X6533Y1740D01*
X6530Y1738D01*
X6527Y1735D01*
X6525Y1731D01*
X6523Y1727D01*
X6522Y1721D01*
X6521Y1715D01*
X6520Y1708D01*
X6520Y1700D01*
X6480D01*
X6480Y1708D01*
X6479Y1715D01*
X6478Y1721D01*
X6477Y1727D01*
X6475Y1731D01*
X6473Y1735D01*
X6470Y1738D01*
X6467Y1740D01*
X6464Y1741D01*
X6460Y1741D01*
X6540D01*
X6536Y1741D01*
D02*
G37*
G36*
X6520Y1492D02*
X6521Y1485D01*
X6522Y1479D01*
X6523Y1473D01*
X6525Y1469D01*
X6527Y1465D01*
X6530Y1462D01*
X6533Y1460D01*
X6536Y1459D01*
X6540Y1459D01*
X6460D01*
X6464Y1459D01*
X6467Y1460D01*
X6470Y1462D01*
X6473Y1465D01*
X6475Y1469D01*
X6477Y1473D01*
X6478Y1479D01*
X6479Y1485D01*
X6480Y1492D01*
X6480Y1500D01*
X6520D01*
X6520Y1492D01*
D02*
G37*
G36*
X7526Y1379D02*
X7519Y1393D01*
X7510Y1406D01*
X7502Y1418D01*
X7492Y1427D01*
X7482Y1436D01*
X7470Y1443D01*
X7458Y1448D01*
X7445Y1452D01*
X7431Y1454D01*
X7417Y1455D01*
Y1495D01*
X7431Y1496D01*
X7444Y1498D01*
X7456Y1502D01*
X7466Y1508D01*
X7476Y1515D01*
X7485Y1523D01*
X7493Y1534D01*
X7499Y1546D01*
X7505Y1559D01*
X7509Y1574D01*
X7526Y1379D01*
D02*
G37*
G36*
X7346Y1364D02*
X7351Y1346D01*
X7358Y1328D01*
X7367Y1311D01*
X7380Y1294D01*
X7395Y1278D01*
X7413Y1262D01*
X7434Y1247D01*
X7458Y1232D01*
X7485Y1218D01*
X7173Y1192D01*
X7198Y1211D01*
X7220Y1231D01*
X7240Y1250D01*
X7257Y1269D01*
X7272Y1288D01*
X7284Y1307D01*
X7293Y1326D01*
X7300Y1345D01*
X7304Y1364D01*
X7305Y1383D01*
X7345D01*
X7346Y1364D01*
D02*
G37*
G36*
X3681Y2288D02*
X3665Y2272D01*
X3630Y2231D01*
X3623Y2220D01*
X3617Y2210D01*
X3614Y2201D01*
X3612Y2194D01*
X3613Y2187D01*
X3616Y2182D01*
X3542Y2276D01*
X3546Y2272D01*
X3551Y2270D01*
X3557Y2270D01*
X3564Y2271D01*
X3572Y2275D01*
X3581Y2280D01*
X3591Y2287D01*
X3602Y2296D01*
X3627Y2319D01*
X3681Y2288D01*
D02*
G37*
G36*
X4522Y2023D02*
X4517Y2021D01*
X4512Y2018D01*
X4508Y2014D01*
X4505Y2008D01*
X4502Y2002D01*
X4500Y1994D01*
X4499Y1985D01*
X4498Y1975D01*
X4497Y1963D01*
X4437D01*
X4437Y1975D01*
X4436Y1985D01*
X4435Y1994D01*
X4433Y2002D01*
X4430Y2008D01*
X4427Y2014D01*
X4423Y2018D01*
X4418Y2021D01*
X4413Y2023D01*
X4407Y2023D01*
X4527D01*
X4522Y2023D01*
D02*
G37*
G36*
X3554Y2023D02*
X3549Y2021D01*
X3545Y2018D01*
X3541Y2014D01*
X3537Y2008D01*
X3535Y2002D01*
X3533Y1994D01*
X3531Y1985D01*
X3530Y1975D01*
X3530Y1963D01*
X3470D01*
X3470Y1975D01*
X3469Y1985D01*
X3467Y1994D01*
X3465Y2002D01*
X3462Y2008D01*
X3459Y2014D01*
X3455Y2018D01*
X3451Y2021D01*
X3446Y2023D01*
X3440Y2023D01*
X3560D01*
X3554Y2023D01*
D02*
G37*
G36*
X4681Y1477D02*
X4686Y1454D01*
X4693Y1433D01*
X4703Y1412D01*
X4716Y1393D01*
X4732Y1374D01*
X4751Y1356D01*
X4773Y1340D01*
X4797Y1324D01*
X4825Y1310D01*
X4475D01*
X4503Y1324D01*
X4527Y1340D01*
X4549Y1356D01*
X4568Y1374D01*
X4584Y1393D01*
X4597Y1412D01*
X4607Y1433D01*
X4614Y1454D01*
X4619Y1477D01*
X4620Y1500D01*
X4680D01*
X4681Y1477D01*
D02*
G37*
G36*
X3123Y1381D02*
X3108Y1363D01*
X3096Y1339D01*
X3084Y1310D01*
X3075Y1276D01*
X3066Y1236D01*
X3060Y1190D01*
X3052Y1083D01*
X3050Y954D01*
X2654Y1350D01*
X2721Y1350D01*
X2890Y1360D01*
X2936Y1366D01*
X2976Y1375D01*
X3010Y1384D01*
X3039Y1396D01*
X3063Y1408D01*
X3081Y1423D01*
X3123Y1381D01*
D02*
G37*
G36*
X6176Y791D02*
X6176Y796D01*
X6173Y801D01*
X6170Y806D01*
X6164Y809D01*
X6158Y813D01*
X6149Y815D01*
X6140Y817D01*
X6128Y819D01*
X6115Y820D01*
X6101Y820D01*
Y880D01*
X6115Y880D01*
X6140Y883D01*
X6149Y885D01*
X6158Y887D01*
X6164Y891D01*
X6170Y894D01*
X6173Y899D01*
X6176Y904D01*
X6176Y909D01*
Y791D01*
D02*
G37*
G36*
X4997Y748D02*
X4992Y732D01*
X4988Y716D01*
X4987Y701D01*
X4988Y686D01*
X4992Y671D01*
X4997Y657D01*
X5005Y643D01*
X5015Y629D01*
X5027Y616D01*
X4984Y573D01*
X4971Y585D01*
X4957Y595D01*
X4943Y603D01*
X4929Y608D01*
X4914Y612D01*
X4899Y613D01*
X4884Y612D01*
X4868Y608D01*
X4852Y603D01*
X4835Y595D01*
X5005Y765D01*
X4997Y748D01*
D02*
G37*
G36*
X6181Y478D02*
X6200Y463D01*
X6208Y457D01*
X6216Y453D01*
X6223Y451D01*
X6229Y450D01*
X6235Y450D01*
X6240Y452D01*
X6245Y456D01*
X6161Y372D01*
X6164Y376D01*
X6166Y381D01*
X6167Y387D01*
X6166Y394D01*
X6163Y401D01*
X6159Y408D01*
X6154Y417D01*
X6147Y426D01*
X6138Y435D01*
X6128Y446D01*
X6171Y488D01*
X6181Y478D01*
D02*
G37*
D10*
X9600Y3550D02*
X10550Y2600D01*
X8043Y3550D02*
X9600D01*
X7843Y3350D02*
X8043Y3550D01*
X2114Y4807D02*
X2392D01*
X2107Y4800D02*
X2114Y4807D01*
X2392D02*
X2480Y4895D01*
X3002Y3261D02*
X3090Y3350D01*
X3533D01*
X2480Y3261D02*
X3002D01*
X2975Y4442D02*
X3117Y4300D01*
X3533D01*
X2480Y4442D02*
X2975D01*
X6500Y2850D02*
X6733D01*
X7434Y2150D01*
X8978D01*
X9316Y1812D01*
X10550D01*
X6500Y3350D02*
X7843D01*
X10237Y6500D02*
X10550Y6187D01*
X8396Y6500D02*
X10237D01*
X7696Y7200D02*
X8396Y6500D01*
X6450Y7200D02*
X7696D01*
X9625Y7900D02*
X10550Y6975D01*
X7993Y7900D02*
X9625D01*
X7793Y7700D02*
X7993Y7900D01*
X6450Y7700D02*
X7793D01*
X6450Y4700D02*
X7054D01*
X7204Y4850D01*
X7350D01*
X6950Y5200D02*
X7350Y5600D01*
X6450Y5200D02*
X6950D01*
X5700Y6733D02*
X5733Y6700D01*
X6450D01*
X6266Y2350D02*
X6500D01*
X5385Y2150D02*
X6066D01*
X6266Y2350D01*
X4467Y1683D02*
X4650Y1500D01*
X4467Y1683D02*
Y2150D01*
X4650Y950D02*
Y1500D01*
X4675Y2025D02*
X5850Y850D01*
X6500D01*
X4675Y2025D02*
Y2325D01*
X6022Y595D02*
X6266Y350D01*
X5005Y595D02*
X6022D01*
X4650Y950D02*
X5005Y595D01*
X6266Y350D02*
X6500D01*
X3500Y1800D02*
Y2150D01*
X2650Y950D02*
X3500Y1800D01*
Y2160D02*
X3588Y2248D01*
X3598D02*
X3900Y2550D01*
X3500Y2150D02*
Y2160D01*
X3588Y2248D02*
X3598D01*
X3900Y2550D02*
X4450D01*
X4675Y2325D01*
X6016Y4500D02*
X6216Y4700D01*
X6450D01*
X5650Y4500D02*
X6016D01*
X5733Y5200D02*
X6450D01*
X5700Y5233D02*
X5733Y5200D01*
D14*
X11200Y-7953D02*
Y-7147D01*
X10797Y-7550D02*
X11603D01*
D15*
X5650Y4165D02*
D03*
Y4500D02*
D03*
X3150Y5350D02*
D03*
Y5685D02*
D03*
X3200Y6600D02*
D03*
Y6935D02*
D03*
X5700Y5567D02*
D03*
Y5233D02*
D03*
X5700Y6733D02*
D03*
Y7067D02*
D03*
D16*
X8712Y4700D02*
D03*
Y5200D02*
D03*
Y5700D02*
D03*
Y6200D02*
D03*
Y6700D02*
D03*
Y7200D02*
D03*
Y7700D02*
D03*
Y8200D02*
D03*
X6450Y4700D02*
D03*
Y5200D02*
D03*
Y5700D02*
D03*
Y6200D02*
D03*
Y6700D02*
D03*
Y7200D02*
D03*
Y7700D02*
D03*
Y8200D02*
D03*
X8762Y350D02*
D03*
Y850D02*
D03*
Y1350D02*
D03*
Y1850D02*
D03*
Y2350D02*
D03*
Y2850D02*
D03*
Y3350D02*
D03*
Y3850D02*
D03*
X6500Y350D02*
D03*
Y850D02*
D03*
Y1350D02*
D03*
Y1850D02*
D03*
Y2350D02*
D03*
Y2850D02*
D03*
Y3350D02*
D03*
Y3850D02*
D03*
D17*
X5385Y2150D02*
D03*
X5050D02*
D03*
X3533Y4300D02*
D03*
X3867D02*
D03*
X3533Y3350D02*
D03*
X3867D02*
D03*
X3165Y2150D02*
D03*
X3500D02*
D03*
X4133Y2150D02*
D03*
X4467D02*
D03*
D18*
X2480Y5210D02*
D03*
Y4895D02*
D03*
Y2690D02*
D03*
Y3005D02*
D03*
D19*
Y3261D02*
D03*
Y3458D02*
D03*
Y3655D02*
D03*
Y3852D02*
D03*
Y4048D02*
D03*
Y4245D02*
D03*
Y4442D02*
D03*
Y4639D02*
D03*
D20*
X2150Y6850D02*
D03*
X1250D02*
D03*
D34*
X4250Y8600D02*
X7950D01*
X3200Y7550D02*
X3249Y7599D01*
Y7599D02*
X4250Y8600D01*
X3249Y7599D02*
Y7599D01*
X3200Y6935D02*
Y7550D01*
X2263Y6980D02*
X3073D01*
X2150Y6867D02*
X2263Y6980D01*
X2150Y6850D02*
Y6867D01*
X8712Y8200D02*
X9900D01*
X8350D02*
X8712D01*
X2263Y6572D02*
Y6737D01*
X2150Y6850D02*
X2263Y6737D01*
Y6572D02*
X3150Y5685D01*
X9850Y4026D02*
Y5600D01*
X9675Y3850D02*
X9850Y4026D01*
X8762Y3850D02*
X9675D01*
X7950Y8600D02*
X8350Y8200D01*
D35*
X2008Y4708D02*
X2100Y4800D01*
X2107D01*
X1350Y5200D02*
X1842Y4708D01*
X2008D01*
X650Y3132D02*
Y4500D01*
Y3132D02*
X1889Y1892D01*
X2480Y2968D02*
Y3005D01*
Y2968D02*
X2773D01*
X2866Y2875D01*
X1889Y1892D02*
X2618D01*
X2866Y2141D01*
Y2875D01*
X1365Y5200D02*
Y6736D01*
X1350Y5200D02*
X1365D01*
X1250Y6850D02*
X1365Y6736D01*
X650Y4500D02*
X1350Y5200D01*
D36*
X7325Y975D02*
Y1383D01*
X7173Y1535D02*
X7325Y1383D01*
Y975D02*
X7350Y950D01*
X7775Y1475D02*
X7800Y1500D01*
X7417Y1475D02*
X7775D01*
X6500Y1350D02*
Y1512D01*
X6523Y1535D02*
X7173D01*
X6523Y1665D02*
X7227D01*
X6500Y1688D02*
X6523Y1665D01*
X6500Y1688D02*
Y1850D01*
X7227Y1665D02*
X7417Y1475D01*
X6500Y1512D02*
X6523Y1535D01*
X2447Y4015D02*
X2480Y4048D01*
X1850Y4015D02*
X2447D01*
X1550Y4315D02*
Y4350D01*
Y4315D02*
X1850Y4015D01*
X2447Y3885D02*
X2480Y3852D01*
X1850Y3885D02*
X2447D01*
X1550Y3585D02*
X1850Y3885D01*
X1550Y3550D02*
Y3585D01*
X4600Y4015D02*
X5315Y4730D01*
Y5725D02*
X6090Y6500D01*
X6450Y5700D02*
Y5862D01*
X5315Y4730D02*
Y5725D01*
X5445Y4676D02*
Y5671D01*
X6793Y5885D02*
X6984Y6076D01*
X5445Y5671D02*
X6143Y6370D01*
X6473Y5885D02*
X6793D01*
X6143Y6370D02*
X6754D01*
X6739Y6015D02*
X6854Y6130D01*
Y6270D01*
X6450Y6038D02*
Y6200D01*
Y5862D02*
X6473Y5885D01*
X6808Y6500D02*
X6984Y6324D01*
X4654Y3885D02*
X5445Y4676D01*
X6090Y6500D02*
X6808D01*
X6754Y6370D02*
X6854Y6270D01*
X6473Y6015D02*
X6739D01*
X6984Y6076D02*
Y6324D01*
X6450Y6038D02*
X6473Y6015D01*
X2810Y3885D02*
X4654D01*
X2810Y4015D02*
X4600D01*
X2480Y4245D02*
X2519Y4206D01*
X2721D02*
X2786Y4141D01*
X2519Y4206D02*
X2721D01*
X2786Y4038D02*
Y4141D01*
Y4038D02*
X2810Y4015D01*
X2786Y3759D02*
Y3862D01*
X2721Y3694D02*
X2786Y3759D01*
X2519Y3694D02*
X2721D01*
X2480Y3655D02*
X2519Y3694D01*
X2786Y3862D02*
X2810Y3885D01*
D37*
X4450Y7700D02*
D03*
Y5700D02*
D03*
X2650Y950D02*
D03*
X4650D02*
D03*
D38*
X9900Y8200D02*
D03*
X9850Y5600D02*
D03*
X7350Y4850D02*
D03*
Y5600D02*
D03*
Y950D02*
D03*
X7800Y1500D02*
D03*
X1550Y3550D02*
D03*
Y4350D02*
D03*
D39*
X10550Y1025D02*
D03*
Y1812D02*
D03*
Y2600D02*
D03*
Y5400D02*
D03*
Y6187D02*
D03*
Y6975D02*
D03*
D40*
Y3387D02*
D03*
Y7762D02*
D03*
D41*
X2057Y2812D02*
D03*
Y5088D02*
D03*
D42*
X620Y2249D02*
D03*
X620Y5651D02*
D03*
D43*
X2254Y2249D02*
D03*
X2254Y5651D02*
D03*
M02*
