M48
;Layer_Color=9474304
;FILE_FORMAT=2:5
INCH,LZ
;TYPE=PLATED
T2F00S00C0.03000
T3F00S00C0.03740
T4F00S00C0.05300
;TYPE=NON_PLATED
T5F00S00C0.02559
%
T02
X0078Y0015
X00985Y0056
X0099Y0082
X00735Y0056
Y00485
Y00095
X00155Y00355
Y00435
T03
X01055Y001025
Y001812
Y0026
Y003387
Y0054
Y006187
Y006975
Y007762
T04
X00265Y00095
X00465
X00445Y0057
Y0077
T05
X0020569Y0028122
Y0050878
M30
