G04*
G04 #@! TF.GenerationSoftware,Altium Limited,Altium Designer,22.0.2 (36)*
G04*
G04 Layer_Color=8388736*
%FSLAX24Y24*%
%MOIN*%
G70*
G04*
G04 #@! TF.SameCoordinates,46051EB8-178F-4A71-8072-0C991FAB0142*
G04*
G04*
G04 #@! TF.FilePolarity,Negative*
G04*
G01*
G75*
%ADD21R,0.0296X0.0276*%
%ADD22O,0.0727X0.0260*%
%ADD23R,0.0276X0.0296*%
%ADD24R,0.0513X0.0296*%
%ADD25R,0.0513X0.0178*%
%ADD26R,0.0586X0.0651*%
%ADD27C,0.0860*%
%ADD28C,0.0660*%
%ADD29C,0.0591*%
%ADD30R,0.0591X0.0591*%
%ADD31C,0.0316*%
%ADD32O,0.0769X0.0454*%
%ADD33O,0.0887X0.0454*%
D21*
X5650Y4165D02*
D03*
Y4500D02*
D03*
X3150Y5350D02*
D03*
Y5685D02*
D03*
X3200Y6600D02*
D03*
Y6935D02*
D03*
X5700Y5567D02*
D03*
Y5233D02*
D03*
X5700Y6733D02*
D03*
Y7067D02*
D03*
D22*
X8712Y4700D02*
D03*
Y5200D02*
D03*
Y5700D02*
D03*
Y6200D02*
D03*
Y6700D02*
D03*
Y7200D02*
D03*
Y7700D02*
D03*
Y8200D02*
D03*
X6450Y4700D02*
D03*
Y5200D02*
D03*
Y5700D02*
D03*
Y6200D02*
D03*
Y6700D02*
D03*
Y7200D02*
D03*
Y7700D02*
D03*
Y8200D02*
D03*
X8762Y350D02*
D03*
Y850D02*
D03*
Y1350D02*
D03*
Y1850D02*
D03*
Y2350D02*
D03*
Y2850D02*
D03*
Y3350D02*
D03*
Y3850D02*
D03*
X6500Y350D02*
D03*
Y850D02*
D03*
Y1350D02*
D03*
Y1850D02*
D03*
Y2350D02*
D03*
Y2850D02*
D03*
Y3350D02*
D03*
Y3850D02*
D03*
D23*
X5385Y2150D02*
D03*
X5050D02*
D03*
X3533Y4300D02*
D03*
X3867D02*
D03*
X3533Y3350D02*
D03*
X3867D02*
D03*
X3165Y2150D02*
D03*
X3500D02*
D03*
X4133Y2150D02*
D03*
X4467D02*
D03*
D24*
X2480Y5210D02*
D03*
Y4895D02*
D03*
Y2690D02*
D03*
Y3005D02*
D03*
D25*
Y3261D02*
D03*
Y3458D02*
D03*
Y3655D02*
D03*
Y3852D02*
D03*
Y4048D02*
D03*
Y4245D02*
D03*
Y4442D02*
D03*
Y4639D02*
D03*
D26*
X2150Y6850D02*
D03*
X1250D02*
D03*
D27*
X4450Y7700D02*
D03*
Y5700D02*
D03*
X2650Y950D02*
D03*
X4650D02*
D03*
D28*
X9900Y8200D02*
D03*
X9850Y5600D02*
D03*
X7350Y4850D02*
D03*
Y5600D02*
D03*
Y950D02*
D03*
X7800Y1500D02*
D03*
X1550Y3550D02*
D03*
Y4350D02*
D03*
D29*
X10550Y1025D02*
D03*
Y1812D02*
D03*
Y2600D02*
D03*
Y5400D02*
D03*
Y6187D02*
D03*
Y6975D02*
D03*
D30*
Y3387D02*
D03*
Y7762D02*
D03*
D31*
X2057Y2812D02*
D03*
Y5088D02*
D03*
D32*
X620Y2249D02*
D03*
X620Y5651D02*
D03*
D33*
X2254Y2249D02*
D03*
X2254Y5651D02*
D03*
M02*
